<svg width="17" height="18" viewBox="0 0 17 18" fill="none" xmlns="http://www.w3.org/2000/svg">
<path fill-rule="evenodd" clip-rule="evenodd" d="M9 2.25C7.80653 2.25 6.66193 2.72411 5.81802 3.56802C4.97411 4.41193 4.5 5.55653 4.5 6.75V10.5C4.5 11.0312 4.35913 11.5478 4.09808 12H13.9019C13.6409 11.5478 13.5 11.0312 13.5 10.5V6.75C13.5 5.55653 13.0259 4.41193 12.182 3.56802C11.3381 2.72411 10.1935 2.25 9 2.25ZM16.5 12C16.1022 12 15.7206 11.842 15.4393 11.5607C15.158 11.2794 15 10.8978 15 10.5V6.75C15 5.1587 14.3679 3.63258 13.2426 2.50736C12.1174 1.38214 10.5913 0.75 9 0.75C7.4087 0.75 5.88258 1.38214 4.75736 2.50736C3.63214 3.63258 3 5.1587 3 6.75V10.5C3 10.8978 2.84196 11.2794 2.56066 11.5607C2.27936 11.842 1.89783 12 1.5 12C1.08579 12 0.75 12.3358 0.75 12.75C0.75 13.1642 1.08579 13.5 1.5 13.5H16.5V12ZM7.32617 15.1012C7.68447 14.8934 8.14341 15.0154 8.35125 15.3737C8.41718 15.4873 8.51181 15.5817 8.62567 15.6472C8.73952 15.7128 8.86861 15.7473 9 15.7473C9.13139 15.7473 9.26048 15.7128 9.37433 15.6472C9.48819 15.5817 9.58282 15.4873 9.64875 15.3737C9.85659 15.0154 10.3155 14.8934 10.6738 15.1012C11.0321 15.3091 11.1541 15.768 10.9462 16.1263C10.7485 16.4673 10.4646 16.7503 10.123 16.9471C9.78144 17.1438 9.39418 17.2473 9 17.2473C8.60582 17.2473 8.21856 17.1438 7.877 16.9471C7.53543 16.7503 7.25154 16.4673 7.05375 16.1263C6.84591 15.768 6.96788 15.3091 7.32617 15.1012Z" fill="white"/>
</svg>
